<svg width="24" height="24" viewBox="0 0 24 24" xmlns="http://www.w3.org/2000/svg">
    <g>
        <path
            d="M23.08 3.33203C23.856 3.33203 24.296 4.00203 23.772 4.71503L21.235 9.11803V16.978C21.235 18.991 19.768 20.668 17.776 20.668H3.68996C2.71614 20.6526 1.78653 20.2588 1.09784 19.5702C0.409155 18.8815 0.0154242 17.9519 -3.62396e-05 16.978V7.04303C0.00326432 6.06734 0.389457 5.13193 1.07544 4.4381C1.76143 3.74426 2.69237 3.34744 3.66796 3.33303L23.08 3.33203ZM17.294 7.04203H3.89996C3.31296 7.04203 2.74696 7.39903 2.74696 7.96503C2.74696 8.53103 3.31296 8.88703 3.89996 8.88703H17.294C17.881 8.88703 18.447 8.53103 18.447 7.96503C18.447 7.39903 17.881 7.04203 17.294 7.04203ZM17.294 10.732H3.89996C3.31296 10.732 2.74696 11.088 2.74696 11.654C2.74696 12.22 3.31296 12.576 3.89996 12.576H17.294C17.881 12.576 18.447 12.22 18.447 11.654C18.447 11.088 17.881 10.732 17.294 10.732ZM17.315 14.442H7.60996C7.02296 14.442 6.45696 14.798 6.45696 15.364C6.45696 15.93 7.02296 16.287 7.60996 16.287H17.315C17.902 16.287 18.468 15.93 18.468 15.364C18.468 14.798 17.902 14.442 17.315 14.442Z"
            fill="#FFFFFF" />
    </g>
</svg>
